HIERARCHY
ROOT Hips
{
	OFFSET 0.000000 0.000000 0.000000
	CHANNELS 6 Xposition Yposition Zposition Xrotation Yrotation Zrotation
	JOINT LeftUpLeg_virtual
	{
		OFFSET 0.000000 0.000000 0.000000
		CHANNELS 3 Xrotation Yrotation Zrotation
		JOINT LeftUpLeg
		{
			OFFSET 15.427100 -6.655098 0.678600
			CHANNELS 3 Xrotation Yrotation Zrotation
			JOINT LeftLeg
			{
				OFFSET 4.081073 -39.591068 13.024000
				CHANNELS 3 Xrotation Yrotation Zrotation
				JOINT LeftFoot
				{
					OFFSET -4.081074 -37.707932 -15.979700
					CHANNELS 3 Xrotation Yrotation Zrotation
					JOINT LeftToeBase
					{
						OFFSET 5.346399 -15.068900 20.645000
						CHANNELS 3 Xrotation Yrotation Zrotation
						JOINT LeftToe_End
						{
							OFFSET 2.754700 0.931300 11.300900
							CHANNELS 3 Xrotation Yrotation Zrotation
							End Site
							{
								OFFSET 0 0 0
							}
						}
					}
				}
			}
		}
	}
	JOINT RightUpLeg_virtual
	{
		OFFSET 0.000000 0.000000 0.000000
		CHANNELS 3 Xrotation Yrotation Zrotation
		JOINT RightUpLeg
		{
			OFFSET -15.569500 -6.655098 0.678600
			CHANNELS 3 Xrotation Yrotation Zrotation
			JOINT RightLeg
			{
				OFFSET -4.081825 -39.591045 13.023800
				CHANNELS 3 Xrotation Yrotation Zrotation
				JOINT RightFoot
				{
					OFFSET 4.081824 -37.707954 -15.979600
					CHANNELS 3 Xrotation Yrotation Zrotation
					JOINT RightToeBase
					{
						OFFSET -5.346400 -15.068900 20.645000
						CHANNELS 3 Xrotation Yrotation Zrotation
						JOINT RightToe_End
						{
							OFFSET -2.754700 0.931300 11.300900
							CHANNELS 3 Xrotation Yrotation Zrotation
							End Site
							{
								OFFSET 0 0 0
							}
						}
					}
				}
			}
		}
	}
	JOINT Spine_virtual
	{
		OFFSET 0.000000 0.000000 0.000000
		CHANNELS 3 Xrotation Yrotation Zrotation
		JOINT Spine
		{
			OFFSET -0.279200 12.230698 -2.892100
			CHANNELS 3 Xrotation Yrotation Zrotation
			JOINT Spine1
			{
				OFFSET -0.232667 10.192268 -1.242267
				CHANNELS 3 Xrotation Yrotation Zrotation
				JOINT Spine1_split
				{
					OFFSET -0.232667 10.192268 -1.242267
					CHANNELS 3 Xrotation Yrotation Zrotation
					JOINT Spine2
					{
						OFFSET -0.232667 10.192268 -1.242267
						CHANNELS 3 Xrotation Yrotation Zrotation
						JOINT Neck_virtual
						{
							OFFSET 0.000000 0.000000 0.000000
							CHANNELS 3 Xrotation Yrotation Zrotation
							JOINT Neck
							{
								OFFSET -0.418800 17.814194 8.416900
								CHANNELS 3 Xrotation Yrotation Zrotation
								JOINT Head
								{
									OFFSET 0.000000 7.031097 3.806800
									CHANNELS 3 Xrotation Yrotation Zrotation
									JOINT HeadTop_End
									{
										OFFSET 0.000000 24.646606 12.978600
										CHANNELS 3 Xrotation Yrotation Zrotation
										End Site
										{
											OFFSET 0 0 0
										}
									}
								}
							}
						}
						JOINT LeftShoulder_virtual
						{
							OFFSET 0.000000 0.000000 0.000000
							CHANNELS 3 Xrotation Yrotation Zrotation
							JOINT LeftShoulder
							{
								OFFSET 8.476499 7.247704 -3.868750
								CHANNELS 3 Xrotation Yrotation Zrotation
								JOINT LeftShoulder_split
								{
									OFFSET 8.476499 7.247704 -3.868750
									CHANNELS 3 Xrotation Yrotation Zrotation
									JOINT LeftArm
									{
										OFFSET 9.308998 -2.777710 0.208600
										CHANNELS 3 Xrotation Yrotation Zrotation
										JOINT LeftForeArm
										{
											OFFSET 29.972298 0.000000 0.000000
											CHANNELS 3 Xrotation Yrotation Zrotation
											JOINT LeftHand
											{
												OFFSET 26.026505 0.000000 0.000000
												CHANNELS 3 Xrotation Yrotation Zrotation
												End Site
												{
													OFFSET 0 0 0
												}
											}
										}
									}
								}
							}
						}
						JOINT RightShoulder_virtual
						{
							OFFSET 0.000000 0.000000 0.000000
							CHANNELS 3 Xrotation Yrotation Zrotation
							JOINT RightShoulder
							{
								OFFSET -7.570500 7.247704 -3.868750
								CHANNELS 3 Xrotation Yrotation Zrotation
								JOINT RightShoulder_split
								{
									OFFSET -7.570500 7.247704 -3.868750
									CHANNELS 3 Xrotation Yrotation Zrotation
									JOINT RightArm
									{
										OFFSET -9.308998 -2.777710 0.208500
										CHANNELS 3 Xrotation Yrotation Zrotation
										JOINT RightForeArm
										{
											OFFSET -29.972300 0.000000 0.000000
											CHANNELS 3 Xrotation Yrotation Zrotation
											JOINT RightHand
											{
												OFFSET -26.026505 0.000000 0.000000
												CHANNELS 3 Xrotation Yrotation Zrotation
												End Site
												{
													OFFSET 0 0 0
												}
											}
										}
									}
								}
							}
						}
					}
				}
			}
		}
	}
}
MOTION
Frames: 7
Frame Time: 0.03333333
-6.316300 81.082756 -1.865334 0.000000 0.000000 0.000000 54.098302 -73.019080 55.669259 -55.231935 1.669277 0.404440 41.773044 -7.070879 1.544659 4.159096 -1.253982 -2.064387 -0.194332 1.496644 -1.360530 0.000000 0.000000 0.000000 58.506663 -73.795952 60.834330 -35.258010 -2.781200 -22.181780 45.868030 -1.721142 -0.987927 -20.618159 -4.660807 17.200751 0.347555 1.254606 0.574145 0.000000 0.000000 0.000000 55.024195 -71.850810 55.838982 6.072050 3.537447 4.861134 13.100118 6.802383 6.517376 0.576617 -1.334045 0.665054 0.000000 0.000000 0.000000 12.084754 6.553787 6.308028 1.677942 -0.725365 2.175099 8.482659 4.657585 -5.358651 0.000000 0.000000 0.000000 12.560045 6.560407 6.285809 1.586912 -1.958567 -10.016574 0.583273 1.535812 -0.800347 -52.323272 -25.386640 -93.496943 -0.691989 -24.578255 0.034558 0.000000 0.000000 0.000000 11.963769 6.699420 6.423177 0.908337 12.933704 22.450758 -6.650086 -0.306717 -0.660469 -52.780143 22.758539 73.032863 0.319453 5.720537 1.359009 0.000000 0.000000 0.000000 
-6.289441 81.074348 -1.783073 0.000000 0.000000 0.000000 54.242142 -73.051475 55.797991 -55.279245 1.730338 0.376928 41.737964 -7.033097 1.575898 4.161605 -1.209512 -2.074168 -0.180976 1.498640 -1.369279 0.000000 0.000000 0.000000 58.519189 -73.794218 60.829139 -35.263618 -2.798277 -22.213809 45.832311 -1.707511 -0.980812 -20.580192 -4.696537 17.145144 0.364493 1.260167 0.580237 0.000000 0.000000 0.000000 54.915196 -71.848495 55.708368 6.020118 3.534135 4.856083 13.124968 6.787028 6.497978 0.572391 -1.320448 0.633538 0.000000 0.000000 0.000000 12.098156 6.540949 6.301660 1.688063 -0.698145 2.177275 8.431142 4.694417 -5.375013 0.000000 0.000000 0.000000 12.550566 6.546214 6.292345 1.594079 -1.939822 -10.060733 0.626743 1.510609 -0.750187 -52.277530 -25.410298 -93.475708 -0.696866 -24.557713 0.008152 0.000000 0.000000 0.000000 11.947849 6.666384 6.418348 0.930150 12.876305 22.430321 -6.618839 -0.271057 -0.633649 -52.682205 22.579806 73.022673 0.278495 6.014674 1.383175 0.000000 0.000000 0.000000 
-6.249738 81.084419 -1.684849 0.000000 0.000000 0.000000 54.345360 -73.052951 55.871456 -55.326564 1.766838 0.325589 41.688473 -7.031451 1.584308 4.132005 -1.175827 -2.071450 -0.172625 1.510021 -1.393922 0.000000 0.000000 0.000000 58.457028 -73.770783 60.738379 -35.271401 -2.881750 -22.275479 45.749823 -1.690461 -0.958868 -20.534651 -4.748348 17.104932 0.412255 1.263930 0.594259 0.000000 0.000000 0.000000 54.760471 -71.810485 55.510945 5.949281 3.532260 4.846880 13.167864 6.779212 6.459699 0.600265 -1.272954 0.626398 0.000000 0.000000 0.000000 12.117191 6.529800 6.271970 1.697922 -0.646628 2.141907 8.269751 4.872617 -5.406984 0.000000 0.000000 0.000000 12.559209 6.536372 6.277056 1.602182 -1.937972 -10.099059 0.655331 1.464446 -0.690107 -52.143392 -25.474253 -93.435349 -0.689654 -24.590337 -0.013905 0.000000 0.000000 0.000000 11.970301 6.641136 6.385431 0.952526 12.805228 22.406818 -6.571490 -0.241775 -0.590398 -52.222957 22.611196 72.891683 0.239206 6.799575 1.398186 0.000000 0.000000 0.000000 
-6.206222 81.110573 -1.565514 0.000000 0.000000 0.000000 54.376120 -73.025719 55.860521 -55.379481 1.787531 0.254221 41.637585 -7.030946 1.562066 4.103377 -1.130481 -2.021399 -0.158009 1.529709 -1.433826 0.000000 0.000000 0.000000 58.287694 -73.714748 60.526199 -35.278299 -3.014387 -22.360711 45.643463 -1.671052 -0.924235 -20.481342 -4.810776 17.085676 0.480314 1.265848 0.609851 0.000000 0.000000 0.000000 54.568686 -71.742695 55.258119 5.872754 3.532830 4.834043 13.226457 6.777279 6.408684 0.627435 -1.220134 0.635290 0.000000 0.000000 0.000000 12.141802 6.518351 6.226554 1.700763 -0.581043 2.077756 8.025533 5.175256 -5.449848 0.000000 0.000000 0.000000 12.585388 6.528537 6.243452 1.611281 -1.945507 -10.128793 0.656600 1.411502 -0.656817 -51.959339 -25.590188 -93.373330 -0.670092 -24.701282 -0.033292 0.000000 0.000000 0.000000 12.018215 6.625125 6.332478 0.967918 12.730720 22.374592 -6.535512 -0.193008 -0.536221 -51.502027 22.852894 72.671519 0.216314 7.811570 1.397633 0.000000 0.000000 0.000000 
-6.155837 81.140862 -1.415478 0.000000 0.000000 0.000000 54.377308 -72.971808 55.798708 -55.449788 1.797157 0.171105 41.589254 -6.984762 1.504319 4.089106 -1.050447 -1.871849 -0.123471 1.552923 -1.483883 0.000000 0.000000 0.000000 58.059326 -73.625922 60.232740 -35.282937 -3.155824 -22.465541 45.524546 -1.639326 -0.888448 -20.447657 -4.881933 17.082284 0.577785 1.264117 0.618624 0.000000 0.000000 0.000000 54.357821 -71.650194 54.972839 5.800787 3.534313 4.817211 13.296400 6.774739 6.349406 0.647241 -1.170442 0.650604 0.000000 0.000000 0.000000 12.172211 6.503365 6.173274 1.695474 -0.507461 1.982325 7.725635 5.566131 -5.488048 0.000000 0.000000 0.000000 12.624236 6.519127 6.198345 1.619385 -1.959470 -10.144928 0.649328 1.359916 -0.681933 -51.766267 -25.776970 -93.280187 -0.631845 -24.909042 -0.048820 0.000000 0.000000 0.000000 12.075554 6.614260 6.268806 0.971094 12.660850 22.331802 -6.508386 -0.105529 -0.484092 -50.680557 23.246057 72.397014 0.214825 8.796667 1.381067 0.000000 0.000000 0.000000 
-6.102450 81.162216 -1.268677 0.000000 0.000000 0.000000 54.343437 -72.888753 55.680037 -55.532276 1.793527 0.083562 41.555865 -6.871741 1.418871 4.109687 -0.937581 -1.614787 -0.092736 1.575467 -1.528866 0.000000 0.000000 0.000000 57.829579 -73.521550 59.917097 -35.281544 -3.266843 -22.585861 45.417664 -1.590774 -0.866171 -20.436233 -4.961345 17.098895 0.709161 1.256001 0.616076 0.000000 0.000000 0.000000 54.102417 -71.546498 54.642593 5.740212 3.532021 4.795813 13.368938 6.764339 6.281852 0.654422 -1.140861 0.654578 0.000000 0.000000 0.000000 12.207507 6.479665 6.117051 1.685073 -0.429809 1.859727 7.398854 6.013609 -5.507605 0.000000 0.000000 0.000000 12.668572 6.503800 6.143692 1.625891 -1.974077 -10.153500 0.656656 1.303724 -0.733419 -51.609603 -26.061318 -93.151889 -0.577462 -25.236728 -0.064529 0.000000 0.000000 0.000000 12.133080 6.603337 6.199970 0.958496 12.605722 22.271500 -6.488733 -0.013636 -0.429418 -49.915050 23.697346 72.111088 0.232340 9.582310 1.351003 0.000000 0.000000 0.000000 
-6.046886 81.170654 -1.102276 0.000000 0.000000 0.000000 54.251301 -72.783882 55.497258 -55.631348 1.792372 0.006875 41.561308 -6.728151 1.315323 4.168078 -0.824172 -1.289659 -0.065034 1.589261 -1.558662 0.000000 0.000000 0.000000 57.561330 -73.400874 59.556688 -35.295112 -3.293711 -22.723836 45.342983 -1.496562 -0.872765 -20.377919 -5.034585 17.191649 0.766655 1.243479 0.593993 0.000000 0.000000 0.000000 53.825268 -71.439223 54.296404 5.697662 3.521620 4.766116 13.435997 6.739433 6.206659 0.624377 -1.139331 0.647632 0.000000 0.000000 0.000000 12.246996 6.446452 6.059959 1.673601 -0.354026 1.712065 7.054926 6.485679 -5.499190 0.000000 0.000000 0.000000 12.714215 6.479563 6.080095 1.628163 -1.996122 -10.160243 0.684750 1.257821 -0.780305 -51.487366 -26.465235 -92.974543 -0.507462 -25.687438 -0.086197 0.000000 0.000000 0.000000 12.182541 6.586879 6.129253 0.934656 12.561584 22.193089 -6.467190 0.069601 -0.372739 -49.260936 24.114101 71.856384 0.256432 10.165612 1.312380 0.000000 0.000000 0.000000 
